<svg version="1.0" xmlns="http://www.w3.org/2000/svg" width="3754.667" height="3754.667" viewBox="0 0 2816 2816"><path d="M44 1162.4c-5.2 1.1-16 6.2-16 7.6 0 .3-.8 1.5-1.9 2.6-2.5 2.7-3.9 5.5-6.1 12.2-1.9 5.5-1.9 10.7-1.7 151.2l.2 145.5 2.3 5.7c7 17.4 25.1 24.6 48.8 19.4 3.9-.8 10.4-4.6 13.5-7.9 4.1-4.2 7.5-11.8 8.6-19.2 1-7 .9-285.3-.1-290.5-1.1-5.9-2.8-10.4-4.9-13.5-3.2-4.6-7.1-8.5-8.4-8.5-.7 0-1.3-.4-1.3-.9 0-1.5-12.1-4.3-19.9-4.6-4.2-.1-10.1.3-13.1.9zM630.5 1162.2c-.8.5-1.5.7-1.5.4 0-1-10.2 3.4-12.8 5.5-5.7 4.5-9.7 12.1-11 20.9-.3 2.5-.6 28.5-.6 57.8-.1 47.8-.3 53.1-1.6 51.1-.8-1.3-2.6-3.5-3.9-4.9-1.3-1.4-2.8-3.2-3.5-4-1.4-1.9-10.1-8.9-14.1-11.5-8.4-5.3-22.3-10.8-30.5-12-2.5-.3-6.1-.9-8-1.2-4.8-.9-19.4-.8-26 .1-21.5 2.8-40.6 12.1-55.1 26.7-6.7 6.7-16.9 20.4-16.9 22.6 0 .5-.8 2-1.7 3.3-1.9 2.7-2.9 4.9-7.3 17.2-1.5 4.3-2.6 7.8-2.3 7.8.3 0-.1.7-.8 1.7-.8.9-1.3 1.9-1.1 2.2.4.6-.5 7.4-1.4 11.4-2.3 10.1-2.3 43.3 0 57.7 2.8 17.4 8.5 33.7 16.4 47 2.5 4.1 4.8 7.7 5.2 8 .3.3 1.3 1.6 2.2 2.9 1.8 2.6 13.8 15.3 13.8 14.6 0-.5 3 1.8 5.6 4.3 1.9 1.8 12 7.4 17.9 9.9 19.5 8.3 46 9.8 67.4 3.7 6.1-1.7 18.4-7.3 18.9-8.6.2-.4.9-.8 1.6-.8 2.7 0 15.5-11.2 19.7-17.1 1.2-1.9 2.6-3.6 2.9-3.9.4-.3 1-1.4 1.3-2.4 1-2.7 1.4-1.9 2 5 1.5 15.8 9.5 26.2 22.2 29 11.3 2.5 20.7 2.2 30.5-1.1 8.6-2.9 15.8-12.2 18-23.1.6-3 .8-61 .7-150.4l-.2-145.5-2.3-5.7c-3.7-9.3-12.8-16.8-22.1-18.5-4.9-.9-20-.9-21.6-.1zm-69.3 156.2c10.2 1.4 18.7 5.7 26.6 13.7 11.9 11.9 17.5 29 17.6 53.9 0 7.3-1.3 21.3-2.3 24.7-.5 1.8-.8 3.3-.6 3.3.2 0-.8 3-2.1 6.7-2.9 8-8.2 16.3-13.5 21.3-4.6 4.3-13.5 9.8-16.9 10.4-1.4.2-2.6.5-2.7.7-.2.1-.6.2-1 .3-.5.1-1.3.4-1.8.8-2.2 1.4-22.9.1-28-1.7-11-3.8-22-13.6-27.3-24-2-4-5.2-14.1-5.8-18-.1-1.1-.7-4.9-1.2-8.4-1-6.9-.9-29.6.1-34.6.4-1.7.9-4.4 1.2-6 1-6.2 5.7-18.7 8-21.1.5-.7 1.9-2.5 3-4 3.2-4.6 8.4-9.2 14-12.4 5.2-3 16.8-6.5 18.3-5.6.4.2 1.3.2 1.9-.2 1.3-.8 5.5-.7 12.5.2zM2414.5 1162.5c-5.8 1.3-11.5 3.7-11.5 4.7 0 .5-.6.8-1.2.8-2.2 0-7.9 7.8-10.1 13.8-2.1 5.7-2.1 6-2.1 124.7-.1 107.4.2 128.6 1.8 136.4 4.3 20.8 11.1 34.7 22.3 45.7 9 8.7 23.7 16.3 35.1 18 2 .3 4.6.8 5.7 1.1 4.6 1.4 23.1 1.8 31 .8 2.8-.4 6.8-.8 9-.9 12.7-.8 21.2-7.6 24.9-20 2.2-7.1 1-31.5-1.5-32.4-.5-.2-.9-.9-.9-1.6 0-2.3-5.3-4.3-11-4.1-15.3.6-17.8.6-21 0-11.9-2.2-20.5-12.5-22.5-27-.3-2.2-.6-55.5-.6-118.5-.1-123.8 0-119.1-5.5-128.7-3-5.2-10.4-10.6-16.9-12.3-6.6-1.7-18.8-2-25-.5zM1144.7 1166.2c-6.1.8-12.8 3.5-16.3 6.6-2.8 2.4-6.5 9.8-7.2 14.2-1 5.9-.6 17.3.6 21.6 1.9 6.6 6.4 11.9 12.9 15l5.8 2.9 47.5.3c26.1.2 47.7.5 47.9.8.3.3.6 56.8.6 125.7.1 101.1.4 126.2 1.5 130.2 4.9 18.3 22 27.6 44.5 24.1 13.4-2.1 22.1-10.1 26.8-24.6 1.3-3.8 1.5-22.6 1.5-126 .1-66.8.1-123.4.2-125.7v-4.2l47.8-.3 47.7-.3 5.5-2.6c5.7-2.6 10.3-7.5 12.9-13.4 3.4-7.8 1.9-26.3-2.7-33.4-1.9-2.9-6.1-6.8-7.7-7-.5-.1-1.9-.8-3-1.5-1.1-.8-4.1-1.7-6.5-2.2-5.6-1-252.4-1.2-260.3-.2zM294.7 1263.6c-.1.1-2.9.5-6.2.9-23.8 2.5-44.7 14-58.7 32.2-2.2 2.9-4.1 5.3-4.2 5.3-.1 0-.3-1.8-.3-4s-.3-5.4-.7-7.2c-.3-1.8-.6-3.6-.6-4.1 0-1-4.7-9.8-6.2-11.7-4.9-5.9-14.6-10-24.9-10.3-21.4-.9-33.3 7-37.4 24.8-.8 3.6-1.1 31.7-1 99 .1 93.1.1 94 2.2 99.3 4.5 11.2 11 16.6 23.1 19.2 16.8 3.6 33.1-.8 40.3-10.8 6.4-8.9 6.3-8.3 6.6-68.2.3-71.6.2-70.3 6.1-83 2.4-5.3 15.7-19.8 17-18.5.3.3 1.2-.1 2.1-.9 1.9-1.7 10.5-4.3 17-5.2 15-2.1 27.4 1.4 34.7 10 4.3 5 6.1 8.9 8 18.1 1.2 5.7 1.5 18.1 1.6 68.4.1 71.5.1 71.5 9 81.3 7.7 8.6 22.9 12.1 38.2 8.9 13.9-3 22.8-12.4 24.5-26.1.8-6.5.7-132.4-.2-139.5-1.8-16-4.8-27.2-10.3-39.3-6.5-14-19.9-26.4-35.4-32.5-7-2.7-20.8-5.9-22.2-5.1-.4.3-.8.2-.8-.3 0-.7-20.7-1.3-21.3-.7zM834.7 1263.7c-.2.1-2.9.4-6.2.7-3.3.3-7.1.8-8.5 1.1-1.4.2-4.1.7-6 1.1-4.7.8-4.5.8-15 3.9-.3.1-1.8.5-3.5 1-2.9.8-15.2 6.5-20.5 9.6-12.6 7.3-27 21.5-35.7 35.4-3.2 5.1-9.3 17.9-10.8 22.5-.4 1.3-2.9 9.6-3.1 10.5-.2.5-.5 2.3-.9 4-.3 1.6-.7 3.9-.9 5-2.1 9.5-2.7 33.7-1.2 47 .7 7 4.6 24.3 6.8 30 6.9 18.6 18.6 35.1 33.8 47.5 3 2.5 5.7 4.7 6 5 3.2 3.3 27 14.2 34 15.5.8.2 1.5.4 1.5.5 0 .1.7.3 1.5.5s3.7.8 6.4 1.4c2.7.7 6.8 1.4 9.1 1.7 2.4.3 5.4.7 6.6.9 2.6.5 30.7.6 34.9.1 7.5-.9 13.1-1.9 18.5-3.2 3.3-.8 6.8-1.7 7.9-1.9 5.9-1.3 21.6-8.2 28.1-12.4 10.7-6.8 20.7-15.6 28.3-24.8 3.5-4.3 13.2-20.1 13.2-21.6 0-.7.6-2.1 1.4-3.2 1.1-1.7 5.6-14.1 5.6-15.5 0-.3.6-2.8 1.4-5.5 2.3-7.8 3.8-22.9 3.7-35.5-.1-12.2-.6-17.8-2.6-29.5-.9-4.9-4.9-17.5-7.6-23.2-1-2.4-1.9-4.5-1.9-4.8 0-.9-9.3-15.9-10.7-17.3-.7-.7-1.3-1.7-1.3-2.2 0-.5-3.7-4.7-8.2-9.3-8.3-8.4-19.7-16.9-27.3-20.3-2.2-1-4.7-2.3-5.5-3-4.3-3.2-28.5-9.6-41.5-10.9-6.3-.7-29.4-1.3-29.8-.8zm30 57.5c6.1 2.3 16.3 9.6 18.9 13.5 1 1.6 2.4 3.4 3.1 4.2 4.1 4 9.4 19.3 10.8 31.1.9 7.2.9 25.1 0 32-2.2 17.9-7.8 30.4-17.8 40-6 5.6-9.9 7.9-18.2 10.6-16.3 5.2-36.3 1.3-47.8-9.3-5.7-5.3-8.4-8.9-11.5-15.5-5.9-12.3-7.6-22.4-7.5-44.3.1-25.8 5.2-40.9 18.3-53.4 7.1-6.8 16.3-10.8 26.9-11.7 3.6-.4 6.7-.7 6.9-.8.7-.7 13.4 1.9 17.9 3.6zM1553 1264c0 .3-1.4.5-3.2.4-2.7-.1-6.1.5-12.3 2-.5.2-2.3.6-4 1-18.8 4.7-35.7 18.3-45 36.3-1.3 2.6-2.5 4.3-2.5 3.8 0-.6-.2-4.6-.4-9-.8-21.8-11.6-33-32.9-33.9-21.4-.9-34.4 8.7-37.2 27.5-.7 4.4-.9 185-.2 187.9.2.8.7 3.1 1.1 5 1 4.3 4.8 11.1 8.1 14.4 5.2 5.2 17 9 27.5 8.9 18.4-.3 28.7-6.4 34.1-19.9 2.3-5.9 2.3-6.2 2.5-58.5.1-29 .5-55.1.8-58 2.6-21.3 16.4-36.4 38.1-41.8 7.5-1.9 8.5-2.1 14.5-2.6 16.4-1.6 19-2 25.2-4.7 5.4-2.3 11-7.9 13.4-13.5.9-2.1 1.8-7.4 2-11.8.9-17.1-3.8-28-13.6-32.3-3.3-1.4-16-2.4-16-1.2zM1705.7 1263.6c-.1.1-3.3.5-7 .8-13 1.1-29.3 4.2-41.2 7.8-3.8 1.1-7.6 2.1-8.2 2.1-.7 0-1.3.3-1.3.7 0 .4-.6.7-1.4.7-1.8 0-17.6 6.3-19.4 7.7-7.9 6.3-11.7 13.5-12.1 22.9-.7 15.5 11 28.5 24.3 26.9 2.2-.2 7-1.5 10.6-2.9 8.5-3.2 20.8-7.2 24-7.9 1.4-.3 4.5-1 7-1.6 11.8-2.8 20.4-3.7 33.5-3.4 12.6.2 14.6.5 20.5 2.9 7.9 3.4 12.5 7.6 15.6 14.5 2.7 6.1 4.2 18.1 3.5 27.9-.1.8-4.5 1.1-15.8 1.1-15.5.1-39.4.9-46.3 1.7-1.9.2-6.4.7-10 1-3.6.4-7.4.9-8.5 1.2-1.1.2-3.3.6-5 .7-1.6.2-4.3.6-6 1-1.6.3-3.9.8-5 1-18.9 3.8-33.9 11-43.2 20.6-6.8 7.1-12.8 20.1-13.6 29.6-.2 2.3-.6 4.5-.8 5-.6 1.3-.3 11 .5 17.3 3.6 26.6 23.4 49.5 51.8 60.1 16.6 6.1 37.6 7.8 55.8 4.5 12.5-2.3 26-9.6 34.6-18.7 4.3-4.4 11.4-14.9 11.4-16.8 0-.5.5-1 1.1-1 .6 0 .9.6.6 1.4-.3.7-.1 1.8.5 2.4.6.6.6 1.2-.1 1.6-.7.5-.7 1.5-.1 3.2.5 1.3.9 2.8.9 3.2-.1.4-.1.9.1 1.2.1.3.4 1.6.6 3 .4 2.3 4 8.9 6.6 12 7.6 9.2 28.5 12.2 42.3 6.1 4.4-1.9 12.8-9.8 11.9-11.2-.3-.5-.1-.9.4-.9 1.1 0 3.1-6.6 3.9-12.8.4-2.6.6-31.3.6-63.7 0-52.7-.3-69.4-1.7-76-.2-1.1-.7-4-1.1-6.5-2.5-15.3-11.3-32.8-22-43.5-4.1-4.2-13.9-11.5-15.3-11.5-.7 0-1.2-.3-1.2-.8 0-1.1-17.7-8.5-23.2-9.6-1.3-.3-3.4-.7-4.8-1-6.4-1.5-15-2.8-20-3.2-6-.6-27.9-1.1-28.3-.8zm48.6 144.4c0 6.8-1.4 18.6-2.3 19.7-.2.2-.3.6-.4 1 0 .5-1.5 3.5-3.1 6.7-5.7 11.2-17.7 20.8-30.3 24-11.2 2.8-30.5.2-36.5-5.1-5.5-4.9-6.6-6.1-8.7-10.3-2.8-5.5-3.7-15.3-2-21.5.7-2.5 1.7-4.5 2.1-4.5.5 0 .9-.5.9-1 0-1.9 5.4-6.2 10.5-8.5 4.4-2 7.1-2.8 13.5-4.2 8.9-1.9 21.3-2.8 39.4-2.8h16.9v6.5zM2225.6 1263.7c-.1.1-2.7.4-5.7.7-5 .5-7.9.9-13.8 2.1-3.3.6-13.2 3.4-15.6 4.4-4 1.5-23.9 11.5-25.4 12.7-12.7 10-20.9 17.9-26.5 25.7-1.7 2.3-3.3 4.4-3.6 4.7-3.1 2.8-14.4 27.2-15.6 33.8-.3 1.4-.7 2.9-.9 3.3-.3.4-.7 2.4-1.1 4.4-.3 2.1-.7 4.7-1 5.9-2.6 13.6-2.3 39.2.6 53.6.6 3 1.3 6.4 1.6 7.6.2 1.2 1 3.9 1.8 6.2.8 2.2 1.2 4.3.9 4.6-.4.3-.1.6.5.6.7 0 1.2.7 1.2 1.5 0 2 6 14.8 7.4 15.7.6.4.8.8.3.8-1.3 0 9.4 14 15.7 20.5 6.1 6.2 18.3 15.7 24.1 18.7 7.3 3.8 13.9 7 14.9 7.2.6.1 2 .7 3.1 1.3 1.1.6 2.3 1.1 2.8 1.2.4 0 3 .7 5.9 1.6 4.8 1.4 15.5 3.8 22.3 4.9 9 1.5 36.3 2.3 44 1.2 9.4-1.3 13.1-1.8 13.5-2.1.3-.2 2.6-.6 5-1 10.6-1.5 31.6-8.5 41.5-13.8 10.4-5.7 16.3-12.8 18.2-22.2 2.5-11.7-3.3-24-13.5-28.6-6.5-2.9-14.5-2.2-23.8 2.1-6.6 3-19.2 7.6-23 8.3-1.1.2-3 .7-4.4 1-5.7 1.5-10.3 1.9-24.5 2.2-17.8.4-27.8-1.3-39.7-6.8-8.4-3.8-15.8-10.5-20.2-18-3.2-5.4-7.2-16.4-8-21.8-.3-2.2-.8-4.4-1.1-5-.8-1.2-6.9-1.1 74.5-1.1 38.8 0 72.4-.4 74.8-.9 6.2-1.3 10.9-4.8 12.8-9.4 4.2-10.5-1.2-48.9-9.2-65.6-1.3-2.7-2.4-5.2-2.4-5.5 0-1.2-11-17.5-14.2-21.1-9.2-10.2-20.1-18.9-30.3-24-5.1-2.6-20.7-8.1-24.8-8.8-1.8-.3-4.3-.8-5.7-1-6.2-1.3-32.5-2.7-33.4-1.8zm22.9 48.7c7.6 1.5 9.4 2 14.6 4.7 13.1 6.5 22.6 23.6 23.2 41.6l.2 5.7-50 .1c-27.5 0-50.8-.3-51.7-.7-1.5-.7-1.5-1.5.9-10 5.9-21.8 17.8-34.9 36.6-40.2 3.2-.9 6.2-1.4 6.7-1.1.5.3 1.1.2 1.4-.3.5-.9 13.4-.8 18.1.2zM1885.7 1264.6c-.1.1-2.1.5-4.3.8-5.5.9-14.3 5.2-17.1 8.5-5 5.6-6.8 11.1-6.7 19.6 0 4.4.3 8.9.7 10 1.5 5 3.8 10.9 4.8 12.2.6.7.8 1.3.3 1.3s-.4.4.1.8c.6.4 2.1 3.4 3.4 6.7 1.3 3.3 3.9 9.3 5.8 13.3 1.8 4.1 3.3 7.7 3.3 8 0 .4.9 2.4 2 4.5 1.1 2 1.7 3.7 1.4 3.7-.4 0-.2.6.4 1.2.5.7 2.9 5.8 5.2 11.3 2.3 5.5 5.3 12.2 6.5 15 1.3 2.7 4.3 9.7 6.8 15.5 2.4 5.8 5.5 12.7 6.7 15.5 1.2 2.7 2.8 6.3 3.5 8 .7 1.6 2.2 5 3.3 7.5 1.1 2.5 4.8 11 8.2 19 3.4 8 7.3 16.9 8.6 19.8 1.3 2.9 2.4 5.5 2.4 5.8 0 1.1 7.9 16.3 9.7 18.5 9 11.5 19.5 16.7 33.8 17 7.1.1 8.9-.1 15.4-2.2 10.4-3.3 20-12.5 25.4-24.2 2.3-5.1 3.4-7.5 12.7-28.7 4.5-10.2 8.8-19.9 9.5-21.5.8-1.7 5.7-12.9 11.1-25 5.3-12.1 10.7-24.3 11.9-27 1.3-2.8 5.5-12.4 9.5-21.5 8-18.3 9.7-22.2 13-29.5 1.3-2.8 2.4-5.5 2.5-6 .2-.6 1.7-3.9 3.4-7.5 6.8-14 7.8-24.9 3.2-34.5-3.9-8.4-10.5-13.7-18.8-15.2-6.3-1.1-16.1-.5-22.1 1.3-7 2.2-15.4 10.2-19.5 18.7-2.5 5.2-15.6 36.9-30.3 73.7-3 7.4-6.1 14.8-6.9 16.5-.7 1.6-1.7 4.2-2 5.7-.4 1.6-1.2 2.8-1.8 2.8-.6 0-.8.3-.5.6.4.3-1.4 5.2-3.8 11-2.4 5.7-4.1 10.4-3.7 10.4.3 0 0 .6-.7 1.4-.6.8-1.9 3.6-2.9 6.1l-1.8 4.7-1-2.9c-.6-1.5-1.5-3.7-1.9-4.8-.4-1.1-.8-2.2-.9-2.5-.1-.3-.6-1.6-1.2-3-1-2.2-10.9-27.3-22-55.5-2-5-4.1-10.4-4.8-12-2.4-5.6-16.5-41.6-16.5-42.1 0-.3-1.8-4.3-4-8.9-7.5-15.4-16.1-21.3-31.7-21.9-4-.1-7.4-.1-7.6 0zM937.9 1615.5c-.2.2-2.2.5-4.5.7-4.6.5-11.5 3.8-14.7 7.1-10.8 11.2-7.3 31.2 6.6 38.2 4.4 2.2 13.2 2.8 34.7 2.4.8 0 3.8.1 6.5.1 2.8.1 5.5.1 6 0 .6-.1 1.2-.2 1.5-.1 1.4.6 10 .5 10 0 0-.4 1.7-.3 3.8 0 2 .4 5.1.4 6.9 0 1.8-.3 3.5-.4 3.7-.1.8.7 9.6.8 9.6.1 0-.4 1.8-.3 4 .1s4.3.4 4.5 0c.3-.4 1.9-.5 3.7-.1 1.8.4 5.4.4 8 .1 2.7-.4 4.8-.4 4.8-.1 0 .3 2.4.5 5.2.3 2.9-.1 6.7-.2 8.3-.2 3.3.1 3.9.1 10.9 0 2.6-.1 5 .1 5.3.3.2.3 1.9.1 3.8-.3s3.6-.5 3.9-.3c.8.8 9.6.9 9.6.2 0-.4 1.7-.3 3.8 0 2 .4 5.1.4 6.9 0 1.8-.3 3.5-.4 3.7-.1.8.7 9.6.8 9.6.1 0-.4 1.7-.3 3.8 0 2 .4 5.1.4 6.9 0 1.8-.3 3.5-.4 3.7-.1.8.7 9.6.8 9.6.1 0-.4 1.7-.3 3.8.1 2 .3 4.9.3 6.3-.1 1.5-.3 3.2-.3 3.9.1.7.4 2.7.4 4.6 0 1.8-.4 3.5-.5 3.8-.3.8.8 9.6.9 9.6.2 0-.4 1.7-.3 3.8 0 2 .4 5.1.4 6.9 0 1.8-.3 3.5-.4 3.7-.1.8.7 9.6.8 9.6.1 0-.4 1.7-.3 3.8 0 2 .4 5.1.4 6.9 0 1.8-.3 3.5-.4 3.7-.1.8.7 9.6.8 9.6.1 0-.4 1.7-.3 3.8 0 2 .4 5.1.4 6.9 0 1.8-.3 3.5-.4 3.7-.1.8.7 9.6.8 9.6.1 0-.4 1.7-.3 3.8 0 2 .4 5.1.4 6.9 0 1.8-.3 3.5-.4 3.7-.1.8.7 9.6.8 9.6.1 0-.4 1.7-.3 3.8 0 2 .4 5.4.4 7.5.1 2-.4 3.7-.4 3.7-.1 0 .7 13.4.4 16.3-.3.9-.2 1.7-.1 1.7.2 0 .4 2.4.6 5.2.4 2.9-.1 6.7-.2 8.3-.2 3.3.1 3.9.1 10.9 0 2.6-.1 5 .1 5.3.3.2.3 1.9.1 3.8-.3s3.6-.5 3.9-.3c.8.8 9.6.9 9.6.2 0-.4 1.7-.3 3.8 0 2 .4 5.1.4 6.9 0 1.8-.3 3.5-.4 3.7-.1.8.7 9.6.8 9.6.1 0-.4 1.7-.3 3.8 0 2 .4 5.1.4 6.9 0 1.8-.3 3.5-.4 3.7-.1.8.7 9.6.8 9.6.1 0-.4 1.7-.3 3.8.1 2 .3 4.9.3 6.3-.1 1.5-.3 3.2-.3 3.9.1.7.4 2.7.4 4.6 0 1.8-.4 3.5-.5 3.8-.3.8.8 9.6.9 9.6.2 0-.4 1.7-.3 3.8 0 2 .4 5.1.4 6.9 0 1.8-.3 3.5-.4 3.7-.1.8.7 9.6.8 9.6.1 0-.4 1.7-.3 3.8 0 2 .4 5.1.4 6.9 0 1.8-.3 3.5-.4 3.7-.1.8.7 9.6.8 9.6.1 0-.4 1.7-.3 3.8 0 2 .4 5.1.4 6.9 0 1.8-.3 3.5-.4 3.7-.1.8.7 9.6.8 9.6.1 0-.4 1.7-.3 3.8 0 2 .4 5.1.4 6.9 0 1.8-.3 3.5-.4 3.7-.1.8.7 9.6.8 9.6.1 0-.4 1.7-.3 3.8 0 2 .4 5.4.4 7.5.1 2-.4 3.7-.4 3.7-.1 0 .3 2 .6 4.5.6s4.5-.3 4.5-.6c0-.4 1.5-.3 3.3 0 1.7.4 4.9.4 7 0 2-.3 3.7-.4 3.7 0 0 .3 2.3.6 5 .6 2.8 0 5-.3 5-.6 0-.4 1.7-.3 3.8 0 2 .4 5.1.4 6.9 0 1.8-.3 3.5-.4 3.7-.1.8.7 9.6.8 9.6.1 0-.4 1.7-.3 3.8 0 2 .4 5.1.4 6.9 0 1.8-.3 3.5-.4 3.7-.1.8.7 9.6.8 9.6.1 0-.4 1.7-.3 3.8 0 2 .4 5.1.4 6.9 0 1.8-.3 3.5-.4 3.7-.1.8.7 9.6.8 9.6.1 0-.4 1.7-.3 3.8 0 2 .4 5.1.4 6.9 0 1.8-.3 3.5-.4 3.7-.1.8.7 9.6.8 9.6.1 0-.4 1.7-.3 3.8 0 2 .4 5.1.4 6.9 0 1.8-.3 3.5-.4 3.7-.1.8.7 9.6.8 9.6.1 0-.4 1.7-.3 3.8 0 2 .4 5.1.4 6.9 0 1.8-.3 3.5-.4 3.7-.1.8.7 9.6.8 9.6.1 0-.4 1.7-.3 3.8 0 2 .4 5.1.4 6.9 0 1.8-.3 3.5-.4 3.7-.1.8.7 9.6.8 9.6.1 0-.4 1.7-.3 3.8 0 2 .4 5.1.4 6.9 0 1.8-.3 3.5-.4 3.7-.1.8.7 9.6.8 9.6.1 0-.4 1.7-.3 3.8 0 2 .4 5.1.4 6.9 0 1.8-.3 3.5-.4 3.7-.1.8.7 9.6.8 9.6.1 0-.4 1.8-.3 4 .1s4.3.4 4.5 0c.3-.4 2-.4 3.9 0s5.3.4 7.5 0c2.3-.4 4.1-.4 4.1 0s1.8.4 4 0 4-.4 4 0 1.8.4 4 0 4-.4 4 0 1.8.4 4 0 4-.4 4 0 1.8.4 4 0 4-.4 4 0 1.8.4 4 0 4-.4 4 0 1.8.4 4 0 4-.4 4 0 1.8.4 4 0 4-.4 4 0 1.8.4 4 0 4-.4 4 0 1.8.4 4 0 4-.4 4 0 1.8.4 4 0 4-.4 4 0 1.8.4 4 0 4-.4 4 0 1.8.4 4 0 4-.4 4 0 1.8.4 4 0 4-.4 4 0 1.8.4 4 0 4-.4 4 0 1.8.4 4 0 5.5-.4 7.3-.1c1.7.4 4.9.4 7 0 2-.3 3.7-.4 3.7 0 0 .3 2.3.6 5 .6 2.8 0 5-.3 5-.6 0-.4 1.7-.3 3.8 0 2 .4 5.1.4 6.9 0 1.8-.3 3.5-.4 3.7-.1.8.7 9.6.8 9.6.1 0-.4 1.7-.3 3.8 0 2 .4 5.1.4 6.9 0 1.8-.3 3.5-.4 3.7-.1.8.7 9.6.8 9.6.1 0-.4 1.7-.3 3.8 0 2 .4 5.1.4 6.9 0 1.8-.3 3.5-.4 3.7-.1.8.7 9.6.8 9.6.1 0-.4 1.7-.3 3.8 0 2 .4 5.1.4 6.9 0 1.8-.3 3.5-.4 3.7-.1.8.7 9.6.8 9.6.1 0-.4 1.7-.3 3.8 0 2 .4 5.1.4 6.9 0 1.8-.3 3.5-.4 3.7-.1.8.7 9.6.8 9.6.1 0-.4 1.7-.3 3.8 0 2 .4 5.1.4 6.9 0 1.8-.3 3.5-.4 3.7-.1.8.7 9.6.8 9.6.1 0-.4 1.7-.3 3.8 0 2 .4 5.1.4 6.9 0 1.8-.3 3.5-.4 3.7-.1.8.7 9.6.8 9.6.1 0-.4 1.7-.3 3.8 0 2 .4 5.1.4 6.9 0 1.8-.3 3.5-.4 3.7-.1.8.7 9.6.8 9.6.1 0-.4 1.7-.3 3.8 0 2 .4 5.1.4 6.9 0 1.8-.3 3.5-.4 3.7-.1.8.7 9.6.8 9.6.1 0-.4 1.8-.3 4 .1s4 .4 4 0 1.8-.4 4 0 5.8.4 8 0 4-.4 4 0 1.8.4 4 0 4-.4 4 0 1.8.4 4 0 4-.4 4 0 1.8.4 4 0 4-.4 4 0 1.8.4 4 0 4-.4 4 0 1.8.4 4 0 4-.4 4 0 1.8.4 4 0 4-.4 4 0 1.8.4 4 0 4-.4 4 0 1.8.4 4 0 4-.4 4 0 1.8.4 4 0 4-.4 4 0 1.8.4 4 0 4-.4 4 0 1.8.4 4 0 4-.4 4 0 1.8.4 4 0 4-.4 4 0 1.8.4 4 0 4-.4 4 0 1.8.4 4 0 4-.4 4 0 1.8.4 4 0 5.5-.4 7.3-.1c1.7.4 4.9.4 7 0 2-.3 3.7-.4 3.7 0 0 .3 2.3.6 5 .6 2.8 0 5-.3 5-.6 0-.4 1.7-.3 3.8 0 2 .4 5.1.4 6.9 0 1.8-.3 3.5-.4 3.7-.1.8.7 9.6.8 9.6.1 0-.4 1.7-.3 3.8 0 2 .4 5.1.4 6.9 0 1.8-.3 3.5-.4 3.7-.1.8.7 9.6.8 9.6.1 0-.4 1.7-.3 3.8 0 2 .4 5.1.4 6.9 0 1.8-.3 3.5-.4 3.7-.1.8.7 9.6.8 9.6.1 0-.4 1.7-.3 3.8 0 2 .4 5.1.4 6.9 0 1.8-.3 3.5-.4 3.7-.1.8.7 9.6.8 9.6.1 0-.4 1.7-.3 3.8 0 2 .4 5.1.4 6.9 0 1.8-.3 3.5-.4 3.7-.1.8.7 9.6.8 9.6.1 0-.4 1.7-.3 3.8 0 2 .4 5.1.4 6.9 0 1.8-.3 3.5-.4 3.7-.1.8.7 9.6.8 9.6.1 0-.4 1.7-.3 3.8 0 2 .4 5.1.4 6.9 0 1.8-.3 3.5-.4 3.7-.1.8.7 9.6.8 9.6.1 0-.4 1.7-.3 3.8 0 2 .4 5.1.4 6.9 0 1.8-.3 3.5-.4 3.7-.1.8.7 9.6.8 9.6.1 0-.4 1.7-.3 3.8 0 2 .4 5.1.4 6.9 0 1.8-.3 3.5-.4 3.7-.1.8.7 9.6.8 9.6.1 0-.4 1.8-.3 4 .1s4.3.4 4.5 0c.3-.4 1.9-.5 3.7-.1 1.8.4 5.4.4 8 .1 2.7-.4 4.8-.4 4.8-.1 0 .3 2.4.5 5.2.3 2.9-.1 6.7-.2 8.3-.2 3.3.1 3.9.1 10.9 0 2.6-.1 5 .1 5.3.3.2.3 1.9.1 3.8-.3s3.6-.5 3.9-.3c.8.8 9.6.9 9.6.2 0-.4 1.7-.3 3.8 0 2 .4 5.1.4 6.9 0 1.8-.3 3.5-.4 3.7-.1.8.7 9.6.8 9.6.1 0-.4 1.7-.3 3.8 0 2 .4 5.1.4 6.9 0 1.8-.3 3.5-.4 3.7-.1.8.7 9.6.8 9.6.1 0-.4 1.7-.3 3.8.1 2 .3 4.9.3 6.3-.1 1.5-.3 3.2-.3 3.9.1.7.4 2.7.4 4.6 0 1.8-.4 3.5-.5 3.8-.3.8.8 9.6.9 9.6.2 0-.4 1.7-.3 3.8 0 2 .4 5.1.4 6.9 0 1.8-.3 3.5-.4 3.7-.1.8.7 9.6.8 9.6.1 0-.4 1.7-.3 3.8 0 2 .4 5.1.4 6.9 0 1.8-.3 3.5-.4 3.7-.1.8.8 9.6.8 9.6 0 0-.4.6-.5 1.3-.3 1.8.7 14.7 1.1 14.7.5 0-.3 1.2-.5 2.8-.4 1.5.1 3.9-.5 5.5-1.3 1.5-.7 2.7-1.1 2.7-.8 0 .2 1-.3 2.1-1.3 7.4-6 10-10.8 10.5-19 .4-6.9-1.8-12.9-6.3-17.5-4.6-4.8-9.5-7.1-15.5-7.1-2.6-.1-4.8-.4-4.8-.8s-1.3-.3-2.9.2c-1.6.4-3.2.6-3.5.3-.7-.8-19.5-.8-20.2 0-.3.3-1.6.2-2.8-.2-1.1-.5-2.9-.5-4-.2-1.9.7-9.6.4-10.4-.3-.2-.3-1.5-.1-2.8.4-1.3.5-2.6.6-2.9 0-.3-.5-1.8-.5-3.4 0-1.5.4-3.4.4-4.2 0-.7-.5-2-.5-2.9 0-.9.5-2.2.5-2.9.1-.7-.5-2.9-.5-4.9-.1-2 .3-4.8.3-6.2 0-1.4-.4-3.5-.3-4.6.1-1.2.4-2.5.5-2.8.2-.8-.9-12.6-.9-12.6-.1 0 .4-.6.5-1.2.3-2.3-.9-10.9-1.1-11.4-.3-.3.4-1.5.3-2.8-.2-1.3-.5-2.6-.6-2.9-.3-.8.7-10.2.8-11.3 0-.6-.3-1.6-.2-2.4.3-.7.4-2.4.4-3.6 0-1.4-.6-2.6-.5-2.9.1-.4.5-1.1.6-1.7.3-1.3-.8-19.6-.9-20.4-.1-.3.3-1.6.2-2.8-.2-1.1-.5-2.9-.5-4-.2-1.9.7-9.6.4-10.4-.3-.2-.3-1.5-.1-2.8.4-1.3.5-2.6.6-2.9 0-.3-.5-1.8-.5-3.4 0-1.5.4-3.4.4-4.2 0-.7-.5-2-.5-2.9 0-.9.5-2.2.5-2.8.1-.7-.4-3.5-.5-6.2-.1s-5.5.3-6.2-.1c-.6-.4-1.9-.4-2.8.1-.9.5-2.2.5-3 0-.8-.5-2.1-.5-3 0-.9.5-2.2.5-3 0-.8-.5-2.1-.5-2.9-.1-.9.4-2.7.5-4.1.2-1.3-.4-4.6-.4-7.2-.1-2.6.4-5.3.3-6-.1-.6-.4-1.9-.4-2.8.1-.9.5-2.2.5-3 0-.8-.5-2.1-.5-3 0-.9.5-2.2.5-3 0-.8-.5-2.1-.5-2.9-.1-.9.4-2.7.5-4.1.1-1.4-.3-4.1-.3-6 0-1.9.3-4.6.3-6 0-1.4-.4-3.5-.3-4.6.1-1.2.4-2.5.5-2.8.2-.8-.9-12.6-.9-12.6-.1 0 .4-.6.5-1.2.3-2.3-.9-10.9-1.1-11.4-.3-.3.4-1.5.3-2.8-.2-1.3-.5-2.6-.6-2.9-.3-.8.7-10.2.8-11.3 0-.6-.3-1.6-.2-2.4.3-.7.4-2.4.4-3.6 0-1.4-.6-2.6-.5-2.9.1-.4.5-1.1.6-1.7.3-1.3-.8-19.6-.9-20.4-.1-.3.3-1.6.2-2.8-.2-1.1-.5-2.9-.5-4-.2-1.9.7-9.6.4-10.4-.3-.2-.3-1.5-.1-2.8.4-1.3.5-2.6.6-2.9 0-.3-.5-1.8-.5-3.4 0-1.5.4-3.4.4-4.2 0-.7-.5-2-.5-2.9 0-.9.5-2.2.5-2.8.1-.7-.4-3.5-.5-6.2-.1s-5.5.3-6.2-.1c-.6-.4-1.9-.4-2.8.1-.9.5-2.2.5-3 0-.8-.5-2.1-.5-3 0-.9.5-2.2.5-3 0-.8-.5-2.1-.5-2.9-.1-.9.4-2.7.5-4.1.2-1.3-.4-4.6-.4-7.2-.1-2.6.4-5.3.3-6-.1-.6-.4-1.9-.4-2.8.1-.9.5-2.2.5-3 0-.8-.5-2.1-.5-3 0-.9.5-2.2.5-3 0-.8-.5-2.1-.5-3.1 0-.9.5-1.9.7-2.2.4-.7-.7-13.6-.8-14.3-.1-.3.3-1.6.2-2.9-.3-1.3-.5-2.5-.6-2.8-.3-.8.7-10.2.8-11.3 0-.6-.3-1.6-.2-2.4.3-.7.4-2.4.4-3.6 0-1.4-.6-2.6-.5-2.9 0-.3.5-1.8.5-3.5 0s-3-.5-3 0-.7.7-1.5.4c-2.1-.9-22.5-1-22.5-.3 0 .4-1.6.3-3.5-.1s-3.7-.4-4 .1c-.3.4-1.6.4-2.9-.1-1.3-.5-2.6-.6-2.9-.3-.8.7-10.2.8-11.3 0-.6-.3-1.6-.2-2.4.3-.7.4-2.4.4-3.6 0-1.4-.6-2.6-.5-2.9.1-.4.5-1.1.6-1.7.3-1.3-.8-19.6-.9-20.4-.1-.3.3-1.6.2-2.9-.3-1.3-.5-2.5-.6-2.8-.3-.8.7-10.2.8-11.3 0-.6-.3-1.6-.2-2.4.3-.8.5-2.1.5-3 0-.9-.5-2.2-.5-3 0-.8.5-2.1.5-3 0-.9-.5-2.2-.5-2.9 0-.7.4-2.5.5-3.9.1s-4.7-.4-7.4-.1c-2.6.4-5.3.3-6-.1-.6-.4-1.9-.4-2.8.1-.9.5-2.2.5-3 0-.8-.5-2.1-.5-3 0-.9.5-2.2.5-3 0-.8-.5-2.1-.5-2.9-.1-.9.4-2.7.5-4.1.1-1.4-.3-4.1-.3-6 0-1.9.3-4.6.3-6 0-1.4-.4-3.5-.3-4.6.1-1.2.4-2.5.5-2.8.2-.8-.9-12.6-.9-12.6-.1 0 .4-.6.5-1.2.3-2.3-.9-10.9-1.1-11.4-.3-.3.4-1.5.3-2.8-.2-1.3-.5-2.6-.6-2.9-.3-.8.7-10.2.8-11.3 0-.6-.3-1.6-.2-2.4.3-.7.4-2.4.4-3.6 0-1.4-.6-2.6-.5-2.9.1-.4.5-1.1.6-1.7.3-1.3-.8-19.6-.9-20.4-.1-.3.3-1.6.2-2.8-.2-1.1-.5-2.9-.5-4-.2-1.9.7-9.6.4-10.4-.3-.2-.3-1.5-.1-2.8.4-1.3.5-2.6.6-2.9 0-.3-.5-1.8-.5-3.4 0-1.5.4-3.4.4-4.2 0-.7-.5-2-.5-2.9 0-.9.5-2.2.5-2.8.1-.7-.4-3.5-.5-6.2-.1s-5.5.3-6.2-.1c-.6-.4-1.9-.4-2.8.1-.9.5-2.2.5-3 0-.8-.5-2.1-.5-3 0-.9.5-2.2.5-3 0-.8-.5-2.1-.5-2.9-.1-.9.4-2.7.5-4.1.2-1.3-.4-4.6-.4-7.2-.1-2.6.4-5.3.3-6-.1-.6-.4-1.9-.4-2.8.1-.9.5-2.2.5-3 0-.8-.5-2.1-.5-3 0-.9.5-2.2.5-3 0-.8-.5-2.1-.5-3.1 0-.9.5-1.9.7-2.2.4-.7-.7-13.6-.8-14.3-.1-.3.3-1.6.2-2.9-.3-1.3-.5-2.5-.6-2.8-.3-.8.7-10.2.8-11.3 0-.6-.3-1.6-.2-2.4.3-.7.4-2.4.4-3.6 0-1.4-.6-2.6-.5-2.9 0-.3.5-1.8.5-3.5 0s-3-.5-3 0-.7.7-1.5.4c-2.1-.9-22.5-1-22.5-.3 0 .4-1.6.3-3.5-.1s-3.7-.4-4 .1c-.3.4-1.6.4-2.9-.1-1.3-.5-2.6-.6-2.9-.3-.8.7-10.2.8-11.3 0-.6-.3-1.6-.2-2.4.3-.7.4-2.4.4-3.6 0-1.4-.6-2.6-.5-2.9.1-.4.5-1.1.6-1.7.3-1.3-.8-19.6-.9-20.4-.1-.3.3-1.6.2-2.9-.3-1.3-.5-2.5-.6-2.8-.3-.8.7-10.2.8-11.3 0-.6-.3-1.6-.2-2.4.3-.8.5-2.1.5-3 0-.9-.5-2.2-.5-3 0-.8.5-2.1.5-3 0-.9-.5-2.2-.5-2.9 0-.7.4-2.5.5-3.9.1s-4.7-.4-7.4-.1c-2.6.4-5.3.3-6-.1-.6-.4-1.9-.4-2.8.1-.9.5-2.2.5-3 0-.8-.5-2.1-.5-3 0-.9.5-2.2.5-3 0-.8-.5-2.1-.5-2.9-.1-.9.4-2.7.5-4.1.1-1.4-.3-4.1-.3-6 0-1.9.3-4.6.3-6 0-1.4-.4-3.5-.3-4.6.1-1.2.4-2.5.5-2.8.2-.8-.9-12.6-.9-12.6-.1 0 .4-.6.5-1.2.3-2.3-.9-10.9-1.1-11.4-.3-.3.4-1.5.3-2.8-.2-1.3-.5-2.6-.6-2.9-.3-.8.7-10.2.8-11.3 0-.6-.3-1.6-.2-2.4.3-.7.4-2.4.4-3.6 0-1.4-.6-2.6-.5-2.9.1-.4.5-1.1.6-1.7.3-1.3-.8-19.6-.9-20.4-.1-.3.3-1.6.2-2.8-.2-1.1-.5-2.9-.5-4-.2-1.9.7-9.6.4-10.4-.3-.2-.3-1.5-.1-2.8.4-1.3.5-2.6.6-2.9 0-.3-.5-1.8-.5-3.4 0-1.5.4-3.4.4-4.2 0-.7-.5-2-.5-2.9 0-.9.5-2.2.5-2.8.1-.7-.4-3.5-.5-6.2-.1s-5.5.3-6.2-.1c-.6-.4-1.9-.4-2.8.1-.9.5-2.2.5-3 0-.8-.5-2.1-.5-3 0-.9.5-2.2.5-3 0-.8-.5-2.1-.5-2.9-.1-.9.4-2.7.5-4.1.2-1.3-.4-4.6-.4-7.2-.1-2.6.4-5.3.3-6-.1-.6-.4-1.9-.4-2.8.1-.9.5-2.2.5-3 0-.8-.5-2.1-.5-3 0-.9.5-2.2.5-3 0-.8-.5-2.1-.5-2.9-.1-.9.4-2.7.5-4.1.1-1.4-.3-4.1-.3-6 0-1.9.3-4.6.3-6 0-1.4-.4-3.5-.3-4.6.1-1.2.4-2.5.5-2.8.2-.8-.9-12.6-.9-12.6-.1 0 .4-.6.5-1.2.3-2.3-.9-10.9-1.1-11.4-.3-.3.4-1.5.3-2.8-.2-1.3-.5-2.6-.6-2.9-.3-.8.7-10.2.8-11.3 0-.6-.3-1.6-.2-2.4.3-.7.4-2.4.4-3.6 0-1.4-.6-2.6-.5-2.9.1-.4.5-1.1.6-1.7.3-1.3-.8-19.6-.9-20.4-.1-.3.3-1.6.2-2.8-.2-1.1-.5-2.9-.5-4-.2-1.9.7-9.6.4-10.4-.3-.2-.3-1.5-.1-2.8.4-1.3.5-2.6.6-2.9 0-.3-.5-1.8-.5-3.4 0-1.5.4-3.4.4-4.2 0-.7-.5-2-.5-2.9 0-.9.5-2.2.5-2.9.1-.7-.5-2.9-.5-4.9-.1-2 .3-4.8.3-6.2 0-1.4-.4-3.5-.3-4.6.1-1.2.4-2.5.5-2.8.2-.8-.9-12.6-.9-12.6-.1 0 .4-.6.5-1.2.3-2.3-.9-10.9-1.1-11.4-.3-.3.4-1.5.3-2.8-.2-1.3-.5-2.6-.6-2.9-.3-.8.7-10.2.8-11.3 0-.6-.3-1.6-.2-2.4.3-.7.4-2.4.4-3.6 0-1.4-.6-2.6-.5-2.9.1-.4.5-1.1.6-1.7.3-1.3-.8-19.6-.9-20.4-.1-.3.3-1.6.2-2.8-.2-1.1-.5-2.9-.5-4-.2-1.9.7-9.6.4-10.4-.3-.2-.3-1.5-.1-2.8.4-1.3.5-2.6.6-2.9 0-.3-.5-1.8-.5-3.4 0-1.5.4-3.4.4-4.2 0-.7-.5-2-.5-2.9 0-.9.5-2.2.5-2.9.1-.7-.5-2.9-.5-4.9-.1-2 .3-4.8.3-6.2 0-1.4-.4-3.5-.3-4.6.1-1.2.4-2.5.5-2.8.2-.8-.9-12.6-.9-12.6-.1 0 .4-.6.5-1.2.3-2.3-.9-10.9-1.1-11.4-.3-.3.4-1.5.3-2.8-.2-1.3-.5-2.6-.6-2.9-.3-.8.7-10.2.8-11.3 0-.6-.3-1.6-.2-2.4.3-.7.4-2.4.4-3.6 0-1.4-.6-2.6-.5-2.9.1-.4.5-1.1.6-1.7.3-1.3-.8-19.6-.9-20.4-.1-.3.3-1.6.2-2.8-.2-1.1-.5-2.9-.5-4-.2-1.9.7-9.6.4-10.4-.3-.2-.3-1.5-.1-2.8.4-1.3.5-2.6.6-2.9 0-.3-.5-1.8-.5-3.4 0-1.5.4-3.4.4-4.2 0-.7-.5-2-.5-2.9 0-.9.5-2.2.5-2.9.1-.7-.5-2.9-.5-4.9-.1-2 .3-4.8.3-6.2 0-1.4-.4-3.5-.3-4.6.1-1.2.4-2.5.5-2.8.2-.8-.9-12.6-.9-12.6-.1 0 .4-.6.5-1.2.3-2.3-.9-10.9-1.1-11.4-.3-.3.4-1.5.3-2.8-.2-1.3-.5-2.6-.6-2.9-.3-.8.7-10.2.8-11.3 0-.6-.3-1.6-.2-2.4.3-.7.4-2.4.4-3.6 0-1.4-.6-2.6-.5-2.9.1-.4.5-1.1.6-1.7.3-1.3-.8-19.6-.9-20.4-.1-.3.3-1.6.2-2.8-.2-1.1-.5-2.9-.5-4-.2-1.9.7-9.6.4-10.4-.3-.2-.3-1.5-.1-2.8.4-1.3.5-2.6.6-2.9 0-.3-.5-1.8-.5-3.4 0-1.5.4-3.4.4-4.2 0-.7-.5-2-.5-2.9 0-.9.5-2.2.5-2.8.1-.7-.4-3.5-.5-6.2-.1s-5.5.3-6.2-.1c-.6-.4-1.9-.4-2.8.1-.9.5-2.2.5-3 0-.8-.5-2.1-.5-3 0-.9.5-2.2.5-3 0-.8-.5-2.1-.5-2.9-.1-.9.4-2.7.5-4.1.2-1.3-.4-4.6-.4-7.2-.1-2.6.4-5.3.3-6-.1-.6-.4-1.9-.4-2.8.1-.9.5-2.2.5-3 0-.8-.5-2.1-.5-3 0-.9.5-2.2.5-3 0-.8-.5-2.1-.5-2.9-.1-.9.4-2.7.5-4.1.1-1.4-.3-4.1-.3-6 0-1.9.3-4.6.3-6 0-1.4-.4-3.5-.3-4.7.1-1.2.5-2.5.4-2.8-.1-.3-.5-1.8-.5-3.3 0-1.6.4-3.6.4-4.4-.1-.8-.5-1.7-.7-1.9-.4z"/></svg>