<?xml version="1.0" standalone="no"?>
<!DOCTYPE svg PUBLIC "-//W3C//DTD SVG 20010904//EN"
 "http://www.w3.org/TR/2001/REC-SVG-20010904/DTD/svg10.dtd">
<svg version="1.0" xmlns="http://www.w3.org/2000/svg"
 width="2816.000000pt" height="2816.000000pt" viewBox="0 0 2816.000000 2816.000000"
 preserveAspectRatio="xMidYMid meet">
<metadata>
Created by potrace 1.14, written by Peter Selinger 2001-2017
</metadata>
<g transform="translate(0.000000,2816.000000) scale(0.100000,-0.100000)"
fill="#000000" stroke="none">
<path d="M440 16536 c-52 -11 -160 -62 -160 -76 0 -3 -8 -15 -19 -26 -25 -27
-39 -55 -61 -122 -19 -55 -19 -107 -17 -1512 l2 -1455 23 -57 c70 -174 251
-246 488 -194 39 8 104 46 135 79 41 42 75 118 86 192 10 70 9 2853 -1 2905
-11 59 -28 104 -49 135 -32 46 -71 85 -84 85 -7 0 -13 4 -13 9 0 15 -121 43
-199 46 -42 1 -101 -3 -131 -9z"/>
<path d="M6305 16538 c-8 -5 -15 -7 -15 -4 0 10 -102 -34 -128 -55 -57 -45
-97 -121 -110 -209 -3 -25 -6 -285 -6 -578 -1 -478 -3 -531 -16 -511 -8 13
-26 35 -39 49 -13 14 -28 32 -35 40 -14 19 -101 89 -141 115 -84 53 -223 108
-305 120 -25 3 -61 9 -80 12 -48 9 -194 8 -260 -1 -215 -28 -406 -121 -551
-267 -67 -67 -169 -204 -169 -226 0 -5 -8 -20 -17 -33 -19 -27 -29 -49 -73
-172 -15 -43 -26 -78 -23 -78 3 0 -1 -7 -8 -17 -8 -9 -13 -19 -11 -22 4 -6 -5
-74 -14 -114 -23 -101 -23 -433 0 -577 28 -174 85 -337 164 -470 25 -41 48
-77 52 -80 3 -3 13 -16 22 -29 18 -26 138 -153 138 -146 0 5 30 -18 56 -43 19
-18 120 -74 179 -99 195 -83 460 -98 674 -37 61 17 184 73 189 86 2 4 9 8 16
8 27 0 155 112 197 171 12 19 26 36 29 39 4 3 10 14 13 24 10 27 14 19 20 -50
15 -158 95 -262 222 -290 113 -25 207 -22 305 11 86 29 158 122 180 231 6 30
8 610 7 1504 l-2 1455 -23 57 c-37 93 -128 168 -221 185 -49 9 -200 9 -216 1z
m-693 -1562 c102 -14 187 -57 266 -137 119 -119 175 -290 176 -539 0 -73 -13
-213 -23 -247 -5 -18 -8 -33 -6 -33 2 0 -8 -30 -21 -67 -29 -80 -82 -163 -135
-213 -46 -43 -135 -98 -169 -104 -14 -2 -26 -5 -27 -7 -2 -1 -6 -2 -10 -3 -5
-1 -13 -4 -18 -8 -22 -14 -229 -1 -280 17 -110 38 -220 136 -273 240 -20 40
-52 141 -58 180 -1 11 -7 49 -12 84 -10 69 -9 296 1 346 4 17 9 44 12 60 10
62 57 187 80 211 5 7 19 25 30 40 32 46 84 92 140 124 52 30 168 65 183 56 4
-2 13 -2 19 2 13 8 55 7 125 -2z"/>
<path d="M24145 16535 c-58 -13 -115 -37 -115 -47 0 -5 -6 -8 -12 -8 -22 0
-79 -78 -101 -138 -21 -57 -21 -60 -21 -1247 -1 -1074 2 -1286 18 -1364 43
-208 111 -347 223 -457 90 -87 237 -163 351 -180 20 -3 46 -8 57 -11 46 -14
231 -18 310 -8 28 4 68 8 90 9 127 8 212 76 249 200 22 71 10 315 -15 324 -5
2 -9 9 -9 16 0 23 -53 43 -110 41 -153 -6 -178 -6 -210 0 -119 22 -205 125
-225 270 -3 22 -6 555 -6 1185 -1 1238 0 1191 -55 1287 -30 52 -104 106 -169
123 -66 17 -188 20 -250 5z"/>
<path d="M11447 16498 c-61 -8 -128 -35 -163 -66 -28 -24 -65 -98 -72 -142
-10 -59 -6 -173 6 -216 19 -66 64 -119 129 -150 l58 -29 475 -3 c261 -2 477
-5 479 -8 3 -3 6 -568 6 -1257 1 -1011 4 -1262 15 -1302 49 -183 220 -276 445
-241 134 21 221 101 268 246 13 38 15 226 15 1260 1 668 1 1234 2 1257 l0 42
478 3 477 3 55 26 c57 26 103 75 129 134 34 78 19 263 -27 334 -19 29 -61 68
-77 70 -5 1 -19 8 -30 15 -11 8 -41 17 -65 22 -56 10 -2524 12 -2603 2z"/>
<path d="M2947 15524 c-1 -1 -29 -5 -62 -9 -238 -25 -447 -140 -587 -322 -22
-29 -41 -53 -42 -53 -1 0 -3 18 -3 40 0 22 -3 54 -7 72 -3 18 -6 36 -6 41 0
10 -47 98 -62 117 -49 59 -146 100 -249 103 -214 9 -333 -70 -374 -248 -8 -36
-11 -317 -10 -990 1 -931 1 -940 22 -993 45 -112 110 -166 231 -192 168 -36
331 8 403 108 64 89 63 83 66 682 3 716 2 703 61 830 24 53 157 198 170 185 3
-3 12 1 21 9 19 17 105 43 170 52 150 21 274 -14 347 -100 43 -50 61 -89 80
-181 12 -57 15 -181 16 -684 1 -715 1 -715 90 -813 77 -86 229 -121 382 -89
139 30 228 124 245 261 8 65 7 1324 -2 1395 -18 160 -48 272 -103 393 -65 140
-199 264 -354 325 -70 27 -208 59 -222 51 -4 -3 -8 -2 -8 3 0 7 -207 13 -213
7z"/>
<path d="M8347 15523 c-2 -1 -29 -4 -62 -7 -33 -3 -71 -8 -85 -11 -14 -2 -41
-7 -60 -11 -47 -8 -45 -8 -150 -39 -3 -1 -18 -5 -35 -10 -29 -8 -152 -65 -205
-96 -126 -73 -270 -215 -357 -354 -32 -51 -93 -179 -108 -225 -4 -13 -29 -96
-31 -105 -2 -5 -5 -23 -9 -40 -3 -16 -7 -39 -9 -50 -21 -95 -27 -337 -12 -470
7 -70 46 -243 68 -300 69 -186 186 -351 338 -475 30 -25 57 -47 60 -50 32 -33
270 -142 340 -155 8 -2 15 -4 15 -5 0 -1 7 -3 15 -5 8 -2 37 -8 64 -14 27 -7
68 -14 91 -17 24 -3 54 -7 66 -9 26 -5 307 -6 349 -1 75 9 131 19 185 32 33 8
68 17 79 19 59 13 216 82 281 124 107 68 207 156 283 248 35 43 132 201 132
216 0 7 6 21 14 32 11 17 56 141 56 155 0 3 6 28 14 55 23 78 38 229 37 355
-1 122 -6 178 -26 295 -9 49 -49 175 -76 232 -10 24 -19 45 -19 48 0 9 -93
159 -107 173 -7 7 -13 17 -13 22 0 5 -37 47 -82 93 -83 84 -197 169 -273 203
-22 10 -47 23 -55 30 -43 32 -285 96 -415 109 -63 7 -294 13 -298 8z m300
-575 c61 -23 163 -96 189 -135 10 -16 24 -34 31 -42 41 -40 94 -193 108 -311
9 -72 9 -251 0 -320 -22 -179 -78 -304 -178 -400 -60 -56 -99 -79 -182 -106
-163 -52 -363 -13 -478 93 -57 53 -84 89 -115 155 -59 123 -76 224 -75 443 1
258 52 409 183 534 71 68 163 108 269 117 36 4 67 7 69 8 7 7 134 -19 179 -36z"/>
<path d="M15530 15520 c0 -3 -14 -5 -32 -4 -27 1 -61 -5 -123 -20 -5 -2 -23
-6 -40 -10 -188 -47 -357 -183 -450 -363 -13 -26 -25 -43 -25 -38 0 6 -2 46
-4 90 -8 218 -116 330 -329 339 -214 9 -344 -87 -372 -275 -7 -44 -9 -1850 -2
-1879 2 -8 7 -31 11 -50 10 -43 48 -111 81 -144 52 -52 170 -90 275 -89 184 3
287 64 341 199 23 59 23 62 25 585 1 290 5 551 8 580 26 213 164 364 381 418
75 19 85 21 145 26 164 16 190 20 252 47 54 23 110 79 134 135 9 21 18 74 20
118 9 171 -38 280 -136 323 -33 14 -160 24 -160 12z"/>
<path d="M17057 15524 c-1 -1 -33 -5 -70 -8 -130 -11 -293 -42 -412 -78 -38
-11 -76 -21 -82 -21 -7 0 -13 -3 -13 -7 0 -4 -6 -7 -14 -7 -18 0 -176 -63
-194 -77 -79 -63 -117 -135 -121 -229 -7 -155 110 -285 243 -269 22 2 70 15
106 29 85 32 208 72 240 79 14 3 45 10 70 16 118 28 204 37 335 34 126 -2 146
-5 205 -29 79 -34 125 -76 156 -145 27 -61 42 -181 35 -279 -1 -8 -45 -11
-158 -11 -155 -1 -394 -9 -463 -17 -19 -2 -64 -7 -100 -10 -36 -4 -74 -9 -85
-12 -11 -2 -33 -6 -50 -7 -16 -2 -43 -6 -60 -10 -16 -3 -39 -8 -50 -10 -189
-38 -339 -110 -432 -206 -68 -71 -128 -201 -136 -296 -2 -23 -6 -45 -8 -50 -6
-13 -3 -110 5 -173 36 -266 234 -495 518 -601 166 -61 376 -78 558 -45 125 23
260 96 346 187 43 44 114 149 114 168 0 5 5 10 11 10 6 0 9 -6 6 -14 -3 -7 -1
-18 5 -24 6 -6 6 -12 -1 -16 -7 -5 -7 -15 -1 -32 5 -13 9 -28 9 -32 -1 -4 -1
-9 1 -12 1 -3 4 -16 6 -30 4 -23 40 -89 66 -120 76 -92 285 -122 423 -61 44
19 128 98 119 112 -3 5 -1 9 4 9 11 0 31 66 39 128 4 26 6 313 6 637 0 527 -3
694 -17 760 -2 11 -7 40 -11 65 -25 153 -113 328 -220 435 -41 42 -139 115
-153 115 -7 0 -12 3 -12 8 0 11 -177 85 -232 96 -13 3 -34 7 -48 10 -64 15
-150 28 -200 32 -60 6 -279 11 -283 8z m486 -1444 c0 -68 -14 -186 -23 -197
-2 -2 -3 -6 -4 -10 0 -5 -15 -35 -31 -67 -57 -112 -177 -208 -303 -240 -112
-28 -305 -2 -365 51 -55 49 -66 61 -87 103 -28 55 -37 153 -20 215 7 25 17 45
21 45 5 0 9 5 9 10 0 19 54 62 105 85 44 20 71 28 135 42 89 19 213 28 394 28
l169 0 0 -65z"/>
<path d="M22256 15523 c-1 -1 -27 -4 -57 -7 -50 -5 -79 -9 -138 -21 -33 -6
-132 -34 -156 -44 -40 -15 -239 -115 -254 -127 -127 -100 -209 -179 -265 -257
-17 -23 -33 -44 -36 -47 -31 -28 -144 -272 -156 -338 -3 -14 -7 -29 -9 -33 -3
-4 -7 -24 -11 -44 -3 -21 -7 -47 -10 -59 -26 -136 -23 -392 6 -536 6 -30 13
-64 16 -76 2 -12 10 -39 18 -62 8 -22 12 -43 9 -46 -4 -3 -1 -6 5 -6 7 0 12
-7 12 -15 0 -20 60 -148 74 -157 6 -4 8 -8 3 -8 -13 0 94 -140 157 -205 61
-62 183 -157 241 -187 73 -38 139 -70 149 -72 6 -1 20 -7 31 -13 11 -6 23 -11
28 -12 4 0 30 -7 59 -16 48 -14 155 -38 223 -49 90 -15 363 -23 440 -12 94 13
131 18 135 21 3 2 26 6 50 10 106 15 316 85 415 138 104 57 163 128 182 222
25 117 -33 240 -135 286 -65 29 -145 22 -238 -21 -66 -30 -192 -76 -230 -83
-11 -2 -30 -7 -44 -10 -57 -15 -103 -19 -245 -22 -178 -4 -278 13 -397 68 -84
38 -158 105 -202 180 -32 54 -72 164 -80 218 -3 22 -8 44 -11 50 -8 12 -69 11
745 11 388 0 724 4 748 9 62 13 109 48 128 94 42 105 -12 489 -92 656 -13 27
-24 52 -24 55 0 12 -110 175 -142 211 -92 102 -201 189 -303 240 -51 26 -207
81 -248 88 -18 3 -43 8 -57 10 -62 13 -325 27 -334 18z m229 -487 c76 -15 94
-20 146 -47 131 -65 226 -236 232 -416 l2 -57 -500 -1 c-275 0 -508 3 -517 7
-15 7 -15 15 9 100 59 218 178 349 366 402 32 9 62 14 67 11 5 -3 11 -2 14 3
5 9 134 8 181 -2z"/>
<path d="M18857 15514 c-1 -1 -21 -5 -43 -8 -55 -9 -143 -52 -171 -85 -50 -56
-68 -111 -67 -196 0 -44 3 -89 7 -100 15 -50 38 -109 48 -122 6 -7 8 -13 3
-13 -5 0 -4 -4 1 -8 6 -4 21 -34 34 -67 13 -33 39 -93 58 -133 18 -41 33 -77
33 -80 0 -4 9 -24 20 -45 11 -20 17 -37 14 -37 -4 0 -2 -6 4 -12 5 -7 29 -58
52 -113 23 -55 53 -122 65 -150 13 -27 43 -97 68 -155 24 -58 55 -127 67 -155
12 -27 28 -63 35 -80 7 -16 22 -50 33 -75 11 -25 48 -110 82 -190 34 -80 73
-169 86 -198 13 -29 24 -55 24 -58 0 -11 79 -163 97 -185 90 -115 195 -167
338 -170 71 -1 89 1 154 22 104 33 200 125 254 242 23 51 34 75 127 287 45
102 88 199 95 215 8 17 57 129 111 250 53 121 107 243 119 270 13 28 55 124
95 215 80 183 97 222 130 295 13 28 24 55 25 60 2 6 17 39 34 75 68 140 78
249 32 345 -39 84 -105 137 -188 152 -63 11 -161 5 -221 -13 -70 -22 -154
-102 -195 -187 -25 -52 -156 -369 -303 -737 -30 -74 -61 -148 -69 -165 -7 -16
-17 -42 -20 -57 -4 -16 -12 -28 -18 -28 -6 0 -8 -3 -5 -6 4 -3 -14 -52 -38
-110 -24 -57 -41 -104 -37 -104 3 0 0 -6 -7 -14 -6 -8 -19 -36 -29 -61 l-18
-47 -10 29 c-6 15 -15 37 -19 48 -4 11 -8 22 -9 25 -1 3 -6 16 -12 30 -10 22
-109 273 -220 555 -20 50 -41 104 -48 120 -24 56 -165 416 -165 421 0 3 -18
43 -40 89 -75 154 -161 213 -317 219 -40 1 -74 1 -76 0z"/>
<path d="M9379 12005 c-2 -2 -22 -5 -45 -7 -46 -5 -115 -38 -147 -71 -108
-112 -73 -312 66 -382 44 -22 132 -28 347 -24 8 0 38 -1 65 -1 28 -1 55 -1 60
0 6 1 12 2 15 1 14 -6 100 -5 100 0 0 4 17 3 38 0 20 -4 51 -4 69 0 18 3 35 4
37 1 8 -7 96 -8 96 -1 0 4 18 3 40 -1 22 -4 43 -4 45 0 3 4 19 5 37 1 18 -4
54 -4 80 -1 27 4 48 4 48 1 0 -3 24 -5 52 -3 29 1 67 2 83 2 33 -1 39 -1 109
0 26 1 50 -1 53 -3 2 -3 19 -1 38 3 19 4 36 5 39 3 8 -8 96 -9 96 -2 0 4 17 3
38 0 20 -4 51 -4 69 0 18 3 35 4 37 1 8 -7 96 -8 96 -1 0 4 17 3 38 0 20 -4
51 -4 69 0 18 3 35 4 37 1 8 -7 96 -8 96 -1 0 4 17 3 38 -1 20 -3 49 -3 63 1
15 3 32 3 39 -1 7 -4 27 -4 46 0 18 4 35 5 38 3 8 -8 96 -9 96 -2 0 4 17 3 38
0 20 -4 51 -4 69 0 18 3 35 4 37 1 8 -7 96 -8 96 -1 0 4 17 3 38 0 20 -4 51
-4 69 0 18 3 35 4 37 1 8 -7 96 -8 96 -1 0 4 17 3 38 0 20 -4 51 -4 69 0 18 3
35 4 37 1 8 -7 96 -8 96 -1 0 4 17 3 38 0 20 -4 51 -4 69 0 18 3 35 4 37 1 8
-7 96 -8 96 -1 0 4 17 3 38 0 20 -4 54 -4 75 -1 20 4 37 4 37 1 0 -7 134 -4
163 3 9 2 17 1 17 -2 0 -4 24 -6 52 -4 29 1 67 2 83 2 33 -1 39 -1 109 0 26 1
50 -1 53 -3 2 -3 19 -1 38 3 19 4 36 5 39 3 8 -8 96 -9 96 -2 0 4 17 3 38 0
20 -4 51 -4 69 0 18 3 35 4 37 1 8 -7 96 -8 96 -1 0 4 17 3 38 0 20 -4 51 -4
69 0 18 3 35 4 37 1 8 -7 96 -8 96 -1 0 4 17 3 38 -1 20 -3 49 -3 63 1 15 3
32 3 39 -1 7 -4 27 -4 46 0 18 4 35 5 38 3 8 -8 96 -9 96 -2 0 4 17 3 38 0 20
-4 51 -4 69 0 18 3 35 4 37 1 8 -7 96 -8 96 -1 0 4 17 3 38 0 20 -4 51 -4 69
0 18 3 35 4 37 1 8 -7 96 -8 96 -1 0 4 17 3 38 0 20 -4 51 -4 69 0 18 3 35 4
37 1 8 -7 96 -8 96 -1 0 4 17 3 38 0 20 -4 51 -4 69 0 18 3 35 4 37 1 8 -7 96
-8 96 -1 0 4 17 3 38 0 20 -4 54 -4 75 -1 20 4 37 4 37 1 0 -3 20 -6 45 -6 25
0 45 3 45 6 0 4 15 3 33 0 17 -4 49 -4 70 0 20 3 37 4 37 0 0 -3 23 -6 50 -6
28 0 50 3 50 6 0 4 17 3 38 0 20 -4 51 -4 69 0 18 3 35 4 37 1 8 -7 96 -8 96
-1 0 4 17 3 38 0 20 -4 51 -4 69 0 18 3 35 4 37 1 8 -7 96 -8 96 -1 0 4 17 3
38 0 20 -4 51 -4 69 0 18 3 35 4 37 1 8 -7 96 -8 96 -1 0 4 17 3 38 0 20 -4
51 -4 69 0 18 3 35 4 37 1 8 -7 96 -8 96 -1 0 4 17 3 38 0 20 -4 51 -4 69 0
18 3 35 4 37 1 8 -7 96 -8 96 -1 0 4 17 3 38 0 20 -4 51 -4 69 0 18 3 35 4 37
1 8 -7 96 -8 96 -1 0 4 17 3 38 0 20 -4 51 -4 69 0 18 3 35 4 37 1 8 -7 96 -8
96 -1 0 4 17 3 38 0 20 -4 51 -4 69 0 18 3 35 4 37 1 8 -7 96 -8 96 -1 0 4 17
3 38 0 20 -4 51 -4 69 0 18 3 35 4 37 1 8 -7 96 -8 96 -1 0 4 18 3 40 -1 22
-4 43 -4 45 0 3 4 20 4 39 0 19 -4 53 -4 75 0 23 4 41 4 41 0 0 -4 18 -4 40 0
22 4 40 4 40 0 0 -4 18 -4 40 0 22 4 40 4 40 0 0 -4 18 -4 40 0 22 4 40 4 40
0 0 -4 18 -4 40 0 22 4 40 4 40 0 0 -4 18 -4 40 0 22 4 40 4 40 0 0 -4 18 -4
40 0 22 4 40 4 40 0 0 -4 18 -4 40 0 22 4 40 4 40 0 0 -4 18 -4 40 0 22 4 40
4 40 0 0 -4 18 -4 40 0 22 4 40 4 40 0 0 -4 18 -4 40 0 22 4 40 4 40 0 0 -4
18 -4 40 0 22 4 40 4 40 0 0 -4 18 -4 40 0 22 4 40 4 40 0 0 -4 18 -4 40 0 22
4 40 4 40 0 0 -4 18 -4 40 0 22 4 40 4 40 0 0 -4 18 -4 40 0 22 4 55 4 73 1
17 -4 49 -4 70 0 20 3 37 4 37 0 0 -3 23 -6 50 -6 28 0 50 3 50 6 0 4 17 3 38
0 20 -4 51 -4 69 0 18 3 35 4 37 1 8 -7 96 -8 96 -1 0 4 17 3 38 0 20 -4 51
-4 69 0 18 3 35 4 37 1 8 -7 96 -8 96 -1 0 4 17 3 38 0 20 -4 51 -4 69 0 18 3
35 4 37 1 8 -7 96 -8 96 -1 0 4 17 3 38 0 20 -4 51 -4 69 0 18 3 35 4 37 1 8
-7 96 -8 96 -1 0 4 17 3 38 0 20 -4 51 -4 69 0 18 3 35 4 37 1 8 -7 96 -8 96
-1 0 4 17 3 38 0 20 -4 51 -4 69 0 18 3 35 4 37 1 8 -7 96 -8 96 -1 0 4 17 3
38 0 20 -4 51 -4 69 0 18 3 35 4 37 1 8 -7 96 -8 96 -1 0 4 17 3 38 0 20 -4
51 -4 69 0 18 3 35 4 37 1 8 -7 96 -8 96 -1 0 4 17 3 38 0 20 -4 51 -4 69 0
18 3 35 4 37 1 8 -7 96 -8 96 -1 0 4 18 3 40 -1 22 -4 40 -4 40 0 0 4 18 4 40
0 22 -4 58 -4 80 0 22 4 40 4 40 0 0 -4 18 -4 40 0 22 4 40 4 40 0 0 -4 18 -4
40 0 22 4 40 4 40 0 0 -4 18 -4 40 0 22 4 40 4 40 0 0 -4 18 -4 40 0 22 4 40
4 40 0 0 -4 18 -4 40 0 22 4 40 4 40 0 0 -4 18 -4 40 0 22 4 40 4 40 0 0 -4
18 -4 40 0 22 4 40 4 40 0 0 -4 18 -4 40 0 22 4 40 4 40 0 0 -4 18 -4 40 0 22
4 40 4 40 0 0 -4 18 -4 40 0 22 4 40 4 40 0 0 -4 18 -4 40 0 22 4 40 4 40 0 0
-4 18 -4 40 0 22 4 40 4 40 0 0 -4 18 -4 40 0 22 4 40 4 40 0 0 -4 18 -4 40 0
22 4 40 4 40 0 0 -4 18 -4 40 0 22 4 55 4 73 1 17 -4 49 -4 70 0 20 3 37 4 37
0 0 -3 23 -6 50 -6 28 0 50 3 50 6 0 4 17 3 38 0 20 -4 51 -4 69 0 18 3 35 4
37 1 8 -7 96 -8 96 -1 0 4 17 3 38 0 20 -4 51 -4 69 0 18 3 35 4 37 1 8 -7 96
-8 96 -1 0 4 17 3 38 0 20 -4 51 -4 69 0 18 3 35 4 37 1 8 -7 96 -8 96 -1 0 4
17 3 38 0 20 -4 51 -4 69 0 18 3 35 4 37 1 8 -7 96 -8 96 -1 0 4 17 3 38 0 20
-4 51 -4 69 0 18 3 35 4 37 1 8 -7 96 -8 96 -1 0 4 17 3 38 0 20 -4 51 -4 69
0 18 3 35 4 37 1 8 -7 96 -8 96 -1 0 4 17 3 38 0 20 -4 51 -4 69 0 18 3 35 4
37 1 8 -7 96 -8 96 -1 0 4 17 3 38 0 20 -4 51 -4 69 0 18 3 35 4 37 1 8 -7 96
-8 96 -1 0 4 17 3 38 0 20 -4 51 -4 69 0 18 3 35 4 37 1 8 -7 96 -8 96 -1 0 4
18 3 40 -1 22 -4 43 -4 45 0 3 4 19 5 37 1 18 -4 54 -4 80 -1 27 4 48 4 48 1
0 -3 24 -5 52 -3 29 1 67 2 83 2 33 -1 39 -1 109 0 26 1 50 -1 53 -3 2 -3 19
-1 38 3 19 4 36 5 39 3 8 -8 96 -9 96 -2 0 4 17 3 38 0 20 -4 51 -4 69 0 18 3
35 4 37 1 8 -7 96 -8 96 -1 0 4 17 3 38 0 20 -4 51 -4 69 0 18 3 35 4 37 1 8
-7 96 -8 96 -1 0 4 17 3 38 -1 20 -3 49 -3 63 1 15 3 32 3 39 -1 7 -4 27 -4
46 0 18 4 35 5 38 3 8 -8 96 -9 96 -2 0 4 17 3 38 0 20 -4 51 -4 69 0 18 3 35
4 37 1 8 -7 96 -8 96 -1 0 4 17 3 38 0 20 -4 51 -4 69 0 18 3 35 4 37 1 8 -8
96 -8 96 0 0 4 6 5 13 3 18 -7 147 -11 147 -5 0 3 12 5 28 4 15 -1 39 5 55 13
15 7 27 11 27 8 0 -2 10 3 21 13 74 60 100 108 105 190 4 69 -18 129 -63 175
-46 48 -95 71 -155 71 -26 1 -48 4 -48 8 0 4 -13 3 -29 -2 -16 -4 -32 -6 -35
-3 -7 8 -195 8 -202 0 -3 -3 -16 -2 -28 2 -11 5 -29 5 -40 2 -19 -7 -96 -4
-104 3 -2 3 -15 1 -28 -4 -13 -5 -26 -6 -29 0 -3 5 -18 5 -34 0 -15 -4 -34 -4
-42 0 -7 5 -20 5 -29 0 -9 -5 -22 -5 -29 -1 -7 5 -29 5 -49 1 -20 -3 -48 -3
-62 0 -14 4 -35 3 -46 -1 -12 -4 -25 -5 -28 -2 -8 9 -126 9 -126 1 0 -4 -6 -5
-12 -3 -23 9 -109 11 -114 3 -3 -4 -15 -3 -28 2 -13 5 -26 6 -29 3 -8 -7 -102
-8 -113 0 -6 3 -16 2 -24 -3 -7 -4 -24 -4 -36 0 -14 6 -26 5 -29 -1 -4 -5 -11
-6 -17 -3 -13 8 -196 9 -204 1 -3 -3 -16 -2 -28 2 -11 5 -29 5 -40 2 -19 -7
-96 -4 -104 3 -2 3 -15 1 -28 -4 -13 -5 -26 -6 -29 0 -3 5 -18 5 -34 0 -15 -4
-34 -4 -42 0 -7 5 -20 5 -29 0 -9 -5 -22 -5 -28 -1 -7 4 -35 5 -62 1 -27 -4
-55 -3 -62 1 -6 4 -19 4 -28 -1 -9 -5 -22 -5 -30 0 -8 5 -21 5 -30 0 -9 -5
-22 -5 -30 0 -8 5 -21 5 -29 1 -9 -4 -27 -5 -41 -2 -13 4 -46 4 -72 1 -26 -4
-53 -3 -60 1 -6 4 -19 4 -28 -1 -9 -5 -22 -5 -30 0 -8 5 -21 5 -30 0 -9 -5
-22 -5 -30 0 -8 5 -21 5 -29 1 -9 -4 -27 -5 -41 -1 -14 3 -41 3 -60 0 -19 -3
-46 -3 -60 0 -14 4 -35 3 -46 -1 -12 -4 -25 -5 -28 -2 -8 9 -126 9 -126 1 0
-4 -6 -5 -12 -3 -23 9 -109 11 -114 3 -3 -4 -15 -3 -28 2 -13 5 -26 6 -29 3
-8 -7 -102 -8 -113 0 -6 3 -16 2 -24 -3 -7 -4 -24 -4 -36 0 -14 6 -26 5 -29
-1 -4 -5 -11 -6 -17 -3 -13 8 -196 9 -204 1 -3 -3 -16 -2 -28 2 -11 5 -29 5
-40 2 -19 -7 -96 -4 -104 3 -2 3 -15 1 -28 -4 -13 -5 -26 -6 -29 0 -3 5 -18 5
-34 0 -15 -4 -34 -4 -42 0 -7 5 -20 5 -29 0 -9 -5 -22 -5 -28 -1 -7 4 -35 5
-62 1 -27 -4 -55 -3 -62 1 -6 4 -19 4 -28 -1 -9 -5 -22 -5 -30 0 -8 5 -21 5
-30 0 -9 -5 -22 -5 -30 0 -8 5 -21 5 -29 1 -9 -4 -27 -5 -41 -2 -13 4 -46 4
-72 1 -26 -4 -53 -3 -60 1 -6 4 -19 4 -28 -1 -9 -5 -22 -5 -30 0 -8 5 -21 5
-30 0 -9 -5 -22 -5 -30 0 -8 5 -21 5 -31 0 -9 -5 -19 -7 -22 -4 -7 7 -136 8
-143 1 -3 -3 -16 -2 -29 3 -13 5 -25 6 -28 3 -8 -7 -102 -8 -113 0 -6 3 -16 2
-24 -3 -7 -4 -24 -4 -36 0 -14 6 -26 5 -29 0 -3 -5 -18 -5 -35 0 -17 5 -30 5
-30 0 0 -5 -7 -7 -15 -4 -21 9 -225 10 -225 3 0 -4 -16 -3 -35 1 -19 4 -37 4
-40 -1 -3 -4 -16 -4 -29 1 -13 5 -26 6 -29 3 -8 -7 -102 -8 -113 0 -6 3 -16 2
-24 -3 -7 -4 -24 -4 -36 0 -14 6 -26 5 -29 -1 -4 -5 -11 -6 -17 -3 -13 8 -196
9 -204 1 -3 -3 -16 -2 -29 3 -13 5 -25 6 -28 3 -8 -7 -102 -8 -113 0 -6 3 -16
2 -24 -3 -8 -5 -21 -5 -30 0 -9 5 -22 5 -30 0 -8 -5 -21 -5 -30 0 -9 5 -22 5
-29 0 -7 -4 -25 -5 -39 -1 -14 4 -47 4 -74 1 -26 -4 -53 -3 -60 1 -6 4 -19 4
-28 -1 -9 -5 -22 -5 -30 0 -8 5 -21 5 -30 0 -9 -5 -22 -5 -30 0 -8 5 -21 5
-29 1 -9 -4 -27 -5 -41 -1 -14 3 -41 3 -60 0 -19 -3 -46 -3 -60 0 -14 4 -35 3
-46 -1 -12 -4 -25 -5 -28 -2 -8 9 -126 9 -126 1 0 -4 -6 -5 -12 -3 -23 9 -109
11 -114 3 -3 -4 -15 -3 -28 2 -13 5 -26 6 -29 3 -8 -7 -102 -8 -113 0 -6 3
-16 2 -24 -3 -7 -4 -24 -4 -36 0 -14 6 -26 5 -29 -1 -4 -5 -11 -6 -17 -3 -13
8 -196 9 -204 1 -3 -3 -16 -2 -28 2 -11 5 -29 5 -40 2 -19 -7 -96 -4 -104 3
-2 3 -15 1 -28 -4 -13 -5 -26 -6 -29 0 -3 5 -18 5 -34 0 -15 -4 -34 -4 -42 0
-7 5 -20 5 -29 0 -9 -5 -22 -5 -28 -1 -7 4 -35 5 -62 1 -27 -4 -55 -3 -62 1
-6 4 -19 4 -28 -1 -9 -5 -22 -5 -30 0 -8 5 -21 5 -30 0 -9 -5 -22 -5 -30 0 -8
5 -21 5 -29 1 -9 -4 -27 -5 -41 -2 -13 4 -46 4 -72 1 -26 -4 -53 -3 -60 1 -6
4 -19 4 -28 -1 -9 -5 -22 -5 -30 0 -8 5 -21 5 -30 0 -9 -5 -22 -5 -30 0 -8 5
-21 5 -31 0 -9 -5 -19 -7 -22 -4 -7 7 -136 8 -143 1 -3 -3 -16 -2 -29 3 -13 5
-25 6 -28 3 -8 -7 -102 -8 -113 0 -6 3 -16 2 -24 -3 -7 -4 -24 -4 -36 0 -14 6
-26 5 -29 0 -3 -5 -18 -5 -35 0 -17 5 -30 5 -30 0 0 -5 -7 -7 -15 -4 -21 9
-225 10 -225 3 0 -4 -16 -3 -35 1 -19 4 -37 4 -40 -1 -3 -4 -16 -4 -29 1 -13
5 -26 6 -29 3 -8 -7 -102 -8 -113 0 -6 3 -16 2 -24 -3 -7 -4 -24 -4 -36 0 -14
6 -26 5 -29 -1 -4 -5 -11 -6 -17 -3 -13 8 -196 9 -204 1 -3 -3 -16 -2 -29 3
-13 5 -25 6 -28 3 -8 -7 -102 -8 -113 0 -6 3 -16 2 -24 -3 -8 -5 -21 -5 -30 0
-9 5 -22 5 -30 0 -8 -5 -21 -5 -30 0 -9 5 -22 5 -29 0 -7 -4 -25 -5 -39 -1
-14 4 -47 4 -74 1 -26 -4 -53 -3 -60 1 -6 4 -19 4 -28 -1 -9 -5 -22 -5 -30 0
-8 5 -21 5 -30 0 -9 -5 -22 -5 -30 0 -8 5 -21 5 -29 1 -9 -4 -27 -5 -41 -1
-14 3 -41 3 -60 0 -19 -3 -46 -3 -60 0 -14 4 -35 3 -46 -1 -12 -4 -25 -5 -28
-2 -8 9 -126 9 -126 1 0 -4 -6 -5 -12 -3 -23 9 -109 11 -114 3 -3 -4 -15 -3
-28 2 -13 5 -26 6 -29 3 -8 -7 -102 -8 -113 0 -6 3 -16 2 -24 -3 -7 -4 -24 -4
-36 0 -14 6 -26 5 -29 -1 -4 -5 -11 -6 -17 -3 -13 8 -196 9 -204 1 -3 -3 -16
-2 -28 2 -11 5 -29 5 -40 2 -19 -7 -96 -4 -104 3 -2 3 -15 1 -28 -4 -13 -5
-26 -6 -29 0 -3 5 -18 5 -34 0 -15 -4 -34 -4 -42 0 -7 5 -20 5 -29 0 -9 -5
-22 -5 -28 -1 -7 4 -35 5 -62 1 -27 -4 -55 -3 -62 1 -6 4 -19 4 -28 -1 -9 -5
-22 -5 -30 0 -8 5 -21 5 -30 0 -9 -5 -22 -5 -30 0 -8 5 -21 5 -29 1 -9 -4 -27
-5 -41 -2 -13 4 -46 4 -72 1 -26 -4 -53 -3 -60 1 -6 4 -19 4 -28 -1 -9 -5 -22
-5 -30 0 -8 5 -21 5 -30 0 -9 -5 -22 -5 -30 0 -8 5 -21 5 -29 1 -9 -4 -27 -5
-41 -1 -14 3 -41 3 -60 0 -19 -3 -46 -3 -60 0 -14 4 -35 3 -46 -1 -12 -4 -25
-5 -28 -2 -8 9 -126 9 -126 1 0 -4 -6 -5 -12 -3 -23 9 -109 11 -114 3 -3 -4
-15 -3 -28 2 -13 5 -26 6 -29 3 -8 -7 -102 -8 -113 0 -6 3 -16 2 -24 -3 -7 -4
-24 -4 -36 0 -14 6 -26 5 -29 -1 -4 -5 -11 -6 -17 -3 -13 8 -196 9 -204 1 -3
-3 -16 -2 -28 2 -11 5 -29 5 -40 2 -19 -7 -96 -4 -104 3 -2 3 -15 1 -28 -4
-13 -5 -26 -6 -29 0 -3 5 -18 5 -34 0 -15 -4 -34 -4 -42 0 -7 5 -20 5 -29 0
-9 -5 -22 -5 -29 -1 -7 5 -29 5 -49 1 -20 -3 -48 -3 -62 0 -14 4 -35 3 -46 -1
-12 -4 -25 -5 -28 -2 -8 9 -126 9 -126 1 0 -4 -6 -5 -12 -3 -23 9 -109 11
-114 3 -3 -4 -15 -3 -28 2 -13 5 -26 6 -29 3 -8 -7 -102 -8 -113 0 -6 3 -16 2
-24 -3 -7 -4 -24 -4 -36 0 -14 6 -26 5 -29 -1 -4 -5 -11 -6 -17 -3 -13 8 -196
9 -204 1 -3 -3 -16 -2 -28 2 -11 5 -29 5 -40 2 -19 -7 -96 -4 -104 3 -2 3 -15
1 -28 -4 -13 -5 -26 -6 -29 0 -3 5 -18 5 -34 0 -15 -4 -34 -4 -42 0 -7 5 -20
5 -29 0 -9 -5 -22 -5 -29 -1 -7 5 -29 5 -49 1 -20 -3 -48 -3 -62 0 -14 4 -35
3 -46 -1 -12 -4 -25 -5 -28 -2 -8 9 -126 9 -126 1 0 -4 -6 -5 -12 -3 -23 9
-109 11 -114 3 -3 -4 -15 -3 -28 2 -13 5 -26 6 -29 3 -8 -7 -102 -8 -113 0 -6
3 -16 2 -24 -3 -7 -4 -24 -4 -36 0 -14 6 -26 5 -29 -1 -4 -5 -11 -6 -17 -3
-13 8 -196 9 -204 1 -3 -3 -16 -2 -28 2 -11 5 -29 5 -40 2 -19 -7 -96 -4 -104
3 -2 3 -15 1 -28 -4 -13 -5 -26 -6 -29 0 -3 5 -18 5 -34 0 -15 -4 -34 -4 -42
0 -7 5 -20 5 -29 0 -9 -5 -22 -5 -29 -1 -7 5 -29 5 -49 1 -20 -3 -48 -3 -62 0
-14 4 -35 3 -46 -1 -12 -4 -25 -5 -28 -2 -8 9 -126 9 -126 1 0 -4 -6 -5 -12
-3 -23 9 -109 11 -114 3 -3 -4 -15 -3 -28 2 -13 5 -26 6 -29 3 -8 -7 -102 -8
-113 0 -6 3 -16 2 -24 -3 -7 -4 -24 -4 -36 0 -14 6 -26 5 -29 -1 -4 -5 -11 -6
-17 -3 -13 8 -196 9 -204 1 -3 -3 -16 -2 -28 2 -11 5 -29 5 -40 2 -19 -7 -96
-4 -104 3 -2 3 -15 1 -28 -4 -13 -5 -26 -6 -29 0 -3 5 -18 5 -34 0 -15 -4 -34
-4 -42 0 -7 5 -20 5 -29 0 -9 -5 -22 -5 -28 -1 -7 4 -35 5 -62 1 -27 -4 -55
-3 -62 1 -6 4 -19 4 -28 -1 -9 -5 -22 -5 -30 0 -8 5 -21 5 -30 0 -9 -5 -22 -5
-30 0 -8 5 -21 5 -29 1 -9 -4 -27 -5 -41 -2 -13 4 -46 4 -72 1 -26 -4 -53 -3
-60 1 -6 4 -19 4 -28 -1 -9 -5 -22 -5 -30 0 -8 5 -21 5 -30 0 -9 -5 -22 -5
-30 0 -8 5 -21 5 -29 1 -9 -4 -27 -5 -41 -1 -14 3 -41 3 -60 0 -19 -3 -46 -3
-60 0 -14 4 -35 3 -47 -1 -12 -5 -25 -4 -28 1 -3 5 -18 5 -33 0 -16 -4 -36 -4
-44 1 -8 5 -17 7 -19 4z"/>
</g>
</svg>
